<?xml version="1.0" standalone="no"?>
<!DOCTYPE svg PUBLIC "-//W3C//DTD SVG 20010904//EN"
 "http://www.w3.org/TR/2001/REC-SVG-20010904/DTD/svg10.dtd">
<svg version="1.0" xmlns="http://www.w3.org/2000/svg"
 width="1338.000000pt" height="1136.000000pt" viewBox="0 0 1338.000000 1136.000000"
 preserveAspectRatio="xMidYMid meet">
<metadata>
Created by potrace 1.16, written by Peter Selinger 2001-2019
</metadata>
<g transform="translate(0.000000,1136.000000) scale(0.100000,-0.100000)"
fill="#000000" stroke="none">
<path d="M0 11300 l0 -60 31 0 c23 0 42 -10 71 -40 35 -35 40 -44 34 -72 -12
-60 -42 -88 -118 -112 -17 -5 -18 -276 -18 -5511 l0 -5505 938 0 c920 0 938 0
939 19 1 11 11 29 22 40 12 12 21 27 20 34 0 6 -7 2 -16 -11 -16 -23 -17 -23
-40 39 -13 34 -21 71 -17 81 3 10 7 32 9 49 4 27 3 28 -12 13 -11 -11 -13 -18
-5 -23 7 -4 8 -12 2 -21 -11 -18 -11 -21 -16 59 -3 46 -1 67 8 73 11 6 11 10
0 17 -19 12 -11 172 13 236 61 167 90 241 96 249 4 4 2 25 -6 45 -7 22 -9 45
-4 59 5 14 5 22 -2 22 -6 0 -8 9 -4 19 3 11 7 43 9 73 6 82 36 187 63 219 14
16 20 29 14 29 -6 0 -8 7 -4 16 5 13 8 13 15 2 6 -9 7 -6 3 10 -4 14 -1 28 9
37 8 9 13 22 10 30 -3 8 -2 20 2 26 5 9 10 7 15 -7 7 -18 8 -17 8 3 1 12 5 24
10 28 6 3 6 -8 0 -27 -6 -18 -11 -37 -12 -43 -2 -5 -6 -16 -10 -22 -5 -7 -6
-17 -2 -22 3 -5 1 -12 -4 -15 -5 -3 -12 -27 -16 -52 -9 -64 -14 -72 -35 -67
-15 4 -18 0 -16 -21 2 -15 -5 -37 -14 -49 -13 -16 -17 -36 -15 -67 2 -25 -1
-48 -7 -51 -7 -4 -8 -21 -4 -44 4 -20 10 -34 13 -31 9 9 10 55 1 50 -10 -6
-11 10 -1 20 12 12 31 76 22 76 -15 0 -10 20 14 55 l24 35 -2 -38 c-1 -20 -7
-47 -13 -59 -9 -17 -9 -22 1 -26 9 -3 9 -7 -1 -19 -7 -9 -14 -32 -16 -50 -2
-19 -5 -39 -8 -44 -7 -14 -3 -108 6 -122 4 -7 5 -16 1 -22 -3 -5 -1 -17 4 -27
15 -29 24 -57 22 -70 -1 -7 3 -13 9 -13 5 0 10 -9 10 -19 0 -11 5 -23 11 -27
6 -3 8 -17 5 -30 -5 -19 -3 -22 10 -17 15 5 16 1 11 -28 -3 -19 -3 -28 0 -21
8 20 25 13 18 -8 -4 -11 -2 -20 4 -20 13 0 11 -50 -2 -67 -5 -7 -6 -17 -2 -23
10 -17 -6 -35 -17 -19 -10 14 -7 2 9 -38 5 -13 2 -15 -10 -10 -15 6 -16 3 -7
-13 8 -14 7 -25 -2 -40 -15 -23 -24 -25 -32 -7 -3 6 -3 1 0 -11 5 -21 3 -23
-16 -17 -20 6 -22 4 -17 -14 7 -28 -7 -27 -21 2 -9 18 -11 19 -11 4 -1 -10 4
-28 10 -39 8 -14 8 -23 0 -31 -8 -8 -11 -6 -11 6 0 9 -5 17 -11 17 -7 0 -6 -9
4 -23 17 -26 21 -101 5 -91 -6 4 -5 -3 1 -15 7 -12 11 -27 10 -34 -1 -6 -1
-24 0 -39 l1 -28 4104 0 c4298 0 4143 -1 4104 38 -8 8 -4 17 13 32 22 19 22
20 2 11 -47 -23 -60 -6 -15 21 15 10 22 18 15 18 -6 0 -15 -4 -18 -10 -3 -5
-13 -10 -22 -10 -9 0 -13 3 -10 7 4 3 2 12 -4 20 -6 7 -8 13 -5 13 4 0 0 7 -9
16 -13 13 -14 19 -4 25 10 6 10 11 0 22 -9 11 -9 17 -1 22 6 4 9 13 6 21 -3 8
1 17 10 21 8 3 13 12 10 20 -3 7 1 16 9 19 8 4 15 15 15 25 0 19 14 26 23 12
2 -5 2 -1 -1 7 -14 47 -14 50 2 50 9 0 16 4 16 9 0 5 6 11 13 14 6 2 2 2 -10
0 -26 -4 -31 14 -8 23 12 5 13 9 4 20 -15 19 -4 30 14 15 16 -12 47 -5 47 11
0 6 -7 5 -15 -2 -20 -17 -32 -5 -15 15 8 10 9 15 1 15 -6 0 -11 4 -11 9 0 14
43 21 57 9 7 -6 13 -7 13 -3 0 4 -10 15 -22 26 -13 10 -17 18 -10 19 6 0 12
-4 12 -10 0 -5 5 -10 10 -10 16 0 11 17 -6 24 -9 4 -27 0 -40 -9 -26 -17 -34
-19 -34 -7 0 4 12 15 28 24 15 10 22 18 15 18 -6 0 -15 -4 -18 -10 -9 -15 -25
-12 -25 5 0 8 5 15 12 15 9 0 9 3 0 12 -7 7 -12 16 -12 20 0 15 23 8 41 -14
11 -11 21 -19 24 -16 3 3 -8 19 -25 36 -34 36 -36 42 -15 42 8 0 15 -4 15 -10
0 -9 69 30 69 40 1 3 -3 11 -8 18 -13 21 -53 -7 -45 -30 7 -22 -2 -23 -22 -3
-14 13 -14 16 1 21 9 4 13 13 10 23 -3 12 3 22 20 31 25 13 34 30 15 30 -5 0
-10 -4 -10 -10 0 -5 -7 -10 -17 -10 -14 0 -14 2 2 20 10 11 13 20 7 20 -7 0
-12 7 -12 15 0 8 5 15 11 15 12 0 39 25 39 36 0 4 -9 -1 -20 -11 -16 -14 -20
-15 -20 -4 0 8 5 20 12 27 9 9 9 12 0 12 -16 0 -15 27 1 34 10 5 10 7 0 12
-17 7 -17 31 0 37 9 4 9 8 -2 15 -8 6 -11 17 -7 28 4 10 1 21 -6 25 -10 7 -10
11 -1 20 10 10 9 17 -5 32 -16 19 -16 19 8 13 19 -6 21 -5 10 3 -13 9 -13 14
2 41 9 16 13 30 8 30 -5 0 -12 -9 -15 -20 -3 -11 -11 -20 -16 -20 -6 0 -7 9
-4 20 4 12 2 20 -5 20 -8 0 -10 9 -6 24 4 15 1 26 -7 29 -9 3 -9 7 0 17 8 9 9
17 1 29 -8 13 -6 26 7 50 9 18 14 35 12 38 -3 2 -8 -5 -12 -16 -3 -12 -11 -21
-16 -21 -6 0 -8 9 -4 19 3 11 1 22 -5 26 -6 4 -8 15 -5 26 4 11 2 19 -5 19 -6
0 -10 8 -8 18 1 9 -1 23 -6 30 -4 7 -5 16 -1 20 3 3 10 0 15 -8 6 -8 10 -10
10 -4 0 5 -6 19 -14 29 -12 16 -12 22 1 42 9 13 13 26 9 30 -3 3 -6 1 -6 -6 0
-7 -5 -9 -10 -6 -7 4 -7 11 -2 18 5 7 8 54 7 105 -2 72 1 96 12 108 9 8 12 18
8 22 -4 4 -10 1 -12 -5 -6 -18 -23 -16 -23 2 0 8 5 15 11 15 8 0 7 5 -1 15
-10 12 -10 19 -2 27 8 8 7 15 -6 24 -24 17 -9 28 17 12 23 -14 28 -34 9 -40
-7 -3 0 -16 18 -36 29 -29 30 -30 42 -11 7 11 8 19 2 19 -5 0 -10 -5 -10 -12
0 -7 -10 -3 -22 9 -17 18 -19 25 -9 37 8 10 9 16 1 21 -6 4 -8 15 -5 26 4 11
2 19 -5 19 -6 0 -8 -5 -5 -10 9 -15 -15 -12 -31 4 -16 17 -19 36 -4 36 6 0 10
-4 10 -10 0 -5 5 -10 12 -10 6 0 -1 14 -17 30 -25 26 -27 33 -15 40 13 8 13
11 1 19 -7 5 -10 14 -6 20 4 7 1 19 -6 27 -16 19 -4 30 16 14 8 -7 15 -8 15
-3 0 5 -11 16 -25 23 -25 13 -33 30 -15 30 6 0 10 5 10 10 0 6 -7 10 -15 10
-8 0 -15 5 -15 11 0 6 9 8 22 3 20 -6 21 -5 6 10 -9 9 -21 16 -27 16 -6 0 -11
5 -11 10 0 6 12 8 28 5 26 -6 26 -6 8 9 -11 9 -26 16 -33 16 -17 0 -17 30 0
30 7 0 4 7 -7 15 -11 8 -17 18 -13 21 4 4 13 1 22 -6 8 -7 15 -9 15 -6 0 11
-27 36 -39 36 -6 0 -11 4 -11 8 0 20 15 20 41 1 16 -11 29 -17 29 -14 0 10
-28 35 -39 35 -6 0 -11 5 -11 10 0 6 -7 10 -15 10 -8 0 -15 5 -15 11 0 6 9 8
22 3 20 -6 21 -5 6 10 -9 9 -21 16 -27 16 -17 0 -13 19 9 42 11 12 17 24 14
27 -4 3 -9 0 -11 -6 -5 -15 -33 -17 -33 -3 0 6 5 10 10 10 6 0 10 5 10 10 0 6
-7 10 -15 10 -8 0 -15 7 -15 15 0 8 5 15 12 15 6 0 3 6 -7 14 -16 12 -17 16
-6 30 11 14 11 16 -3 16 -11 0 -16 7 -15 18 1 9 -2 25 -6 36 -5 12 -3 21 6 27
11 7 11 9 -3 9 -20 0 -24 25 -7 35 6 5 4 12 -8 22 -13 10 -15 16 -5 19 17 8
15 24 -3 24 -18 0 -20 30 -2 30 6 0 4 5 -6 11 -12 7 -16 17 -12 30 4 11 2 19
-4 19 -6 0 -11 7 -11 16 0 11 6 14 22 8 20 -6 21 -5 6 10 -9 9 -22 16 -28 16
-7 0 -10 8 -7 20 3 11 1 20 -4 20 -5 0 -9 7 -9 16 0 11 6 14 23 9 22 -7 22 -7
2 9 -11 8 -26 16 -32 16 -16 0 -17 16 -2 25 6 5 4 12 -8 20 -15 11 -15 15 -4
29 11 14 11 16 -3 16 -19 0 -22 30 -3 30 7 0 3 8 -8 16 -14 11 -16 18 -7 21
17 7 15 23 -4 23 -12 0 -15 6 -10 25 4 15 2 25 -4 25 -7 0 -9 8 -5 20 4 12 2
20 -5 20 -8 0 -10 9 -6 24 4 17 1 26 -11 30 -12 5 -13 10 -5 18 8 8 7 15 -4
26 -13 12 -13 16 -2 23 10 6 9 12 -7 24 -14 12 -16 18 -7 21 17 8 15 24 -3 24
-18 0 -20 30 -2 30 6 0 4 5 -5 11 -26 15 -22 32 4 24 19 -6 21 -5 11 6 -17 17
-16 32 1 26 7 -3 19 0 26 6 10 9 14 9 17 0 6 -18 23 -16 23 2 0 19 9 19 34 0
11 -8 25 -15 30 -15 6 0 3 5 -6 11 -22 12 -23 29 -3 29 8 0 15 -4 15 -10 0 -5
5 -10 11 -10 6 0 8 7 5 16 -5 13 -1 15 18 10 15 -4 26 -1 29 7 3 9 7 9 20 -2
15 -12 17 -11 17 5 1 18 1 18 14 2 14 -19 32 -25 21 -8 -3 6 -2 10 4 10 5 0
12 -6 14 -12 4 -10 6 -10 6 0 1 7 5 11 11 7 5 -3 6 -13 3 -22 -4 -10 -2 -14 4
-10 7 4 17 -21 26 -71 9 -42 25 -108 36 -147 26 -94 29 -121 13 -117 -7 1 -3
-10 10 -28 18 -25 20 -34 10 -50 -9 -15 -9 -19 1 -22 10 -2 11 -14 4 -46 -5
-28 -12 -40 -20 -35 -7 3 -3 -3 7 -15 25 -28 28 -28 21 6 -5 25 -5 26 5 4 5
-13 11 -41 13 -63 2 -21 6 -41 9 -45 4 -3 4 -12 2 -19 -3 -7 -1 -16 5 -20 6
-3 11 -13 11 -21 0 -9 -5 -12 -12 -8 -7 4 -8 3 -4 -5 4 -6 11 -9 15 -7 9 6 33
-65 26 -73 -9 -9 -33 33 -28 49 4 13 3 13 -5 1 -8 -11 -5 -23 10 -44 11 -15
23 -25 26 -22 6 6 38 -101 46 -155 6 -37 36 -173 41 -179 4 -7 17 -85 20 -117
1 -11 4 -25 8 -31 4 -6 10 -46 13 -90 3 -43 11 -111 18 -151 9 -50 9 -72 2
-72 -7 0 -6 -4 1 -8 7 -4 14 -17 16 -27 2 -11 6 -27 9 -35 3 -8 16 -60 28
-115 12 -55 25 -107 28 -115 3 -8 7 -26 8 -40 2 -14 6 -36 10 -50 10 -36 11
-39 18 -112 3 -36 9 -74 12 -83 4 -10 1 -21 -7 -26 -11 -7 -11 -9 -1 -9 9 0
12 -8 8 -28 -22 -106 -17 -159 25 -257 38 -90 41 -106 44 -210 2 -60 5 -117 8
-125 19 -56 27 -84 27 -94 0 -18 -26 27 -45 79 -10 28 -32 74 -49 103 -17 29
-36 62 -42 73 -16 29 -26 21 -46 -36 -9 -27 -21 -51 -27 -53 -6 -2 -11 -8 -11
-14 0 -12 -26 -38 -38 -38 -6 0 -13 6 -16 13 -3 6 -4 3 -1 -9 4 -15 -5 -28
-35 -50 -22 -16 -40 -32 -40 -36 0 -15 -23 -8 -41 14 -21 24 -23 34 -9 43 11
7 2 35 -12 35 -5 0 -7 -8 -4 -18 4 -13 -1 -23 -19 -32 -14 -7 -25 -17 -25 -22
0 -13 18 -9 23 5 3 8 14 3 31 -15 30 -31 32 -38 11 -38 -8 0 -15 -4 -15 -10 0
-5 -7 -10 -15 -10 -16 0 62 -83 112 -118 53 -37 80 -93 82 -165 l1 -27 40 20
c85 44 159 140 186 245 l8 30 6 -35 c3 -19 1 -38 -5 -42 -6 -5 -6 -8 2 -8 6 0
12 -8 11 -18 0 -9 3 -68 5 -129 4 -70 2 -115 -4 -119 -6 -3 -8 -13 -5 -21 4
-9 1 -22 -5 -29 -6 -7 -8 -18 -4 -24 3 -5 3 -15 -1 -22 -10 -16 -13 -108 -3
-113 8 -5 2 -102 -7 -117 -3 -4 594 -8 1325 -8 l1331 0 -1 4133 c0 2407 -4
4123 -9 4110 -5 -12 -22 -29 -39 -37 -82 -43 -177 88 -108 151 13 12 33 20 47
18 14 -1 34 -3 45 -4 11 -1 30 -16 43 -34 l22 -32 0 313 c0 310 0 312 -21 312
-41 0 -90 32 -110 73 -25 48 -19 93 17 137 22 25 33 30 70 30 l44 0 0 1096 0
1095 -47 -3 c-44 -3 -48 -5 -57 -36 -5 -19 -20 -41 -34 -50 -36 -24 -99 0
-131 51 l-24 37 -1156 0 -1156 0 32 -22 c37 -27 53 -56 53 -99 0 -78 -76 -118
-161 -84 -12 4 -20 -3 -29 -25 -25 -61 -118 -78 -180 -32 -20 15 -37 19 -72
15 -58 -7 -100 15 -122 62 -16 33 -16 37 0 71 19 40 44 59 92 68 33 6 82 -7
93 -25 3 -6 36 -11 73 -12 55 -2 67 1 72 15 3 9 19 29 35 43 l31 25 -2411 0
c-2208 0 -2413 -1 -2445 -16 -35 -17 -119 -13 -131 7 -4 5 -377 9 -969 9
l-963 0 -37 -25 c-38 -26 -51 -25 -74 7 -13 17 -88 18 -1838 18 l-1824 0 0
-60z m2578 -136 c57 -64 -5 -155 -105 -154 -47 1 -71 18 -83 60 -28 98 118
172 188 94z m-265 -32 c31 -32 33 -42 12 -82 -18 -35 -62 -60 -104 -60 -43 0
-60 9 -77 41 -47 91 97 177 169 101z m-1473 1 c38 -26 49 -45 50 -84 0 -90
-124 -153 -193 -99 -51 40 -55 112 -9 164 35 38 110 48 152 19z m11463 -57
c65 -27 90 -104 52 -160 -37 -56 -95 -60 -154 -10 -56 46 -57 122 -4 164 30
23 61 25 106 6z m-2030 -228 c31 -16 43 -30 52 -58 4 -14 21 -41 36 -61 55
-70 26 -139 -57 -139 -53 0 -104 47 -104 95 0 8 -8 19 -19 24 -10 6 -26 26
-35 46 -16 34 -16 38 -1 61 26 41 85 55 128 32z m-9490 -219 c22 -30 17 -77
-10 -105 -14 -14 -13 -18 11 -43 42 -44 30 -106 -26 -141 -45 -27 -83 -25
-113 5 -31 30 -33 76 -5 115 19 27 19 28 0 45 -29 26 -35 71 -14 103 28 42 46
52 93 49 34 -1 48 -8 64 -28z m9388 -16 c18 -11 33 -31 38 -51 5 -18 23 -48
40 -68 76 -85 6 -172 -107 -133 -23 8 -35 21 -48 55 -15 38 -20 43 -40 38 -39
-10 -93 5 -108 29 -43 70 -15 126 70 138 86 11 125 9 155 -8z m1700 -64 c11
-5 28 -24 38 -40 24 -40 14 -111 -22 -146 l-25 -26 30 -38 c28 -35 30 -43 25
-86 -5 -37 -14 -54 -38 -75 -41 -34 -58 -38 -105 -22 -42 14 -70 45 -79 86 -8
32 39 128 62 128 8 0 2 11 -15 25 -65 55 -63 115 5 175 36 32 86 40 124 19z
m780 -139 c33 -18 52 -67 44 -118 -9 -63 -14 -71 -47 -88 -28 -14 -34 -14 -74
1 -58 22 -79 60 -69 124 9 62 37 91 87 91 22 0 48 -5 59 -10z m-491 -205 c57
-91 -12 -196 -110 -166 -115 34 -118 191 -4 210 53 10 90 -4 114 -44z m-271
-143 c21 -15 27 -29 29 -70 4 -64 -17 -107 -64 -129 -31 -15 -39 -16 -77 -3
-46 17 -87 67 -87 108 0 33 35 89 68 107 34 19 96 13 131 -13z m-10601 2 c36
-25 45 -50 32 -89 -17 -51 -63 -85 -113 -85 -51 0 -63 7 -76 43 -16 42 -13 71
10 101 36 46 104 60 147 30z m472 -71 c28 -23 31 -31 26 -61 -15 -97 -147
-131 -182 -47 -27 66 20 123 113 134 6 0 26 -11 43 -26z m4500 -105 c0 -5 -9
-8 -21 -8 -11 0 -17 -5 -14 -10 4 -6 12 -10 18 -9 34 4 35 2 39 -60 1 -21 6
-29 19 -28 17 1 16 19 -4 45 -6 8 -6 12 1 12 6 0 13 -4 16 -8 8 -13 46 -7 58
9 7 11 11 11 15 2 2 -7 13 -13 23 -13 10 0 27 -3 37 -7 16 -6 15 -8 -7 -14
-19 -5 -15 -7 16 -5 29 1 40 5 37 14 -6 14 6 16 26 3 7 -5 11 -17 7 -27 -6
-21 5 -46 20 -43 5 1 24 1 42 0 35 -1 45 -21 10 -21 -33 0 -16 -9 23 -12 18
-1 38 -7 42 -13 6 -7 10 -6 14 3 2 6 12 12 20 12 9 0 13 -3 10 -7 -4 -3 -2
-12 4 -20 9 -10 8 -13 -5 -13 -9 0 -16 -4 -16 -10 0 -17 28 -11 39 8 9 14 12
15 20 2 12 -18 4 -31 -16 -28 -9 2 -18 -2 -20 -9 -3 -8 9 -11 42 -8 37 3 46 1
41 -10 -3 -8 -1 -17 4 -20 16 -10 11 -25 -5 -19 -8 4 -15 1 -15 -5 0 -6 7 -11
16 -11 10 0 14 -6 11 -15 -4 -9 9 -26 33 -45 39 -31 52 -59 28 -61 -7 0 -2 -5
12 -11 14 -6 28 -10 32 -10 4 1 19 -3 33 -8 20 -8 25 -15 20 -30 -4 -11 -2
-20 4 -20 6 0 11 -7 11 -15 0 -24 20 -17 21 8 1 12 1 25 0 30 0 4 4 7 9 7 6 0
10 -4 10 -10 0 -5 7 -10 15 -10 8 0 15 -5 15 -11 0 -5 -4 -7 -10 -4 -5 3 -10
2 -10 -3 0 -5 14 -12 30 -15 25 -5 30 -11 30 -35 0 -15 5 -33 12 -40 9 -9 6
-12 -15 -12 -20 0 -27 -5 -27 -20 0 -14 -7 -20 -21 -20 -18 0 -19 -3 -9 -14 8
-11 9 -20 1 -33 -8 -14 -10 -15 -11 -3 0 8 -9 21 -21 28 -15 9 -18 19 -13 35
6 19 5 20 -10 8 -9 -7 -16 -9 -16 -3 0 16 -33 24 -43 10 -6 -9 -7 -8 -3 4 3
11 -2 19 -15 23 -10 4 -19 11 -19 16 0 5 -6 9 -14 9 -8 0 -31 16 -52 35 -28
27 -40 32 -46 23 -6 -10 -11 -9 -19 5 -6 10 -22 17 -39 17 -16 0 -31 4 -34 8
-8 14 -66 1 -66 -14 0 -8 -10 -14 -25 -14 -14 0 -28 -7 -31 -15 -5 -12 -16
-14 -48 -10 -24 3 -61 -2 -89 -11 -27 -9 -51 -13 -54 -10 -3 3 -12 -2 -20 -12
-14 -16 -14 -16 -9 1 3 10 3 17 -1 15 -49 -24 -62 -34 -72 -55 -16 -34 -14
-48 4 -33 11 10 19 8 37 -7 13 -10 23 -24 23 -32 0 -8 10 -16 23 -18 13 -1 21
1 17 6 -3 6 4 9 15 8 11 -1 20 -5 20 -10 0 -5 8 -6 18 -2 9 4 29 8 44 10 15 2
37 9 48 15 25 13 110 20 110 8 0 -4 10 -8 23 -7 21 0 21 1 2 10 -14 6 -1 8 43
5 34 -2 69 -10 77 -16 9 -8 28 -10 48 -6 19 3 27 3 19 -3 -10 -6 -4 -14 23
-30 20 -11 40 -21 44 -21 12 0 42 -36 35 -43 -3 -3 4 -10 15 -17 22 -11 28
-35 11 -45 -5 -3 -65 2 -132 11 -68 9 -139 16 -158 15 -26 -1 -31 1 -20 9 12
8 9 10 -12 10 -16 0 -28 -4 -28 -9 0 -4 -66 -11 -147 -14 -82 -4 -182 -13
-223 -22 -144 -30 -229 -30 -435 0 -171 25 -207 27 -360 21 -93 -3 -204 -12
-245 -20 -41 -8 -77 -12 -79 -10 -2 2 16 13 40 24 37 16 40 20 19 21 -16 0
-19 3 -10 6 8 3 18 12 23 19 4 7 22 16 40 19 17 4 38 12 46 19 11 8 13 8 7 -1
-5 -9 1 -13 21 -12 15 0 22 3 16 6 -27 10 -11 23 30 23 26 0 37 -3 29 -9 -16
-10 45 -7 71 4 10 4 36 2 58 -4 23 -7 57 -9 82 -5 23 4 51 6 62 5 36 -2 65 9
65 25 0 11 6 13 20 9 24 -7 26 1 5 21 -8 8 -12 21 -8 29 3 10 -1 15 -13 13
-35 -3 -54 2 -54 13 0 6 7 9 15 5 8 -3 15 -1 15 3 0 5 -17 9 -37 9 -33 0 -35
-2 -20 -13 22 -16 22 -24 -2 -18 -11 3 -22 14 -24 25 -4 15 -11 19 -27 15 -12
-3 -45 1 -73 8 -33 8 -58 10 -69 4 -20 -11 -29 -11 -26 -1 4 20 -24 63 -39 61
-30 -3 -103 13 -103 23 0 5 10 6 23 3 16 -4 18 -4 8 3 -11 8 -11 16 -3 41 6
17 7 31 2 31 -5 0 -7 11 -4 25 3 19 0 25 -13 25 -17 1 -17 1 -1 14 10 7 15 16
11 19 -3 4 -1 7 5 7 20 0 56 41 43 50 -9 5 -7 11 4 20 16 13 15 15 -1 27 -10
7 -13 13 -7 13 7 0 15 -5 18 -10 4 -6 11 -7 17 -4 7 5 9 1 5 -9 -7 -18 8 -22
37 -11 22 8 20 19 -4 21 -27 2 -55 24 -56 46 -2 13 3 16 17 12 13 -4 19 -2 19
9 0 9 6 15 13 14 6 -2 11 5 9 15 -2 10 3 17 14 17 10 0 14 -5 10 -15 -3 -9 0
-15 10 -15 10 0 14 6 10 15 -3 8 2 19 12 24 13 8 10 9 -15 6 -24 -2 -30 0 -26
11 3 8 9 14 15 14 5 0 6 -5 2 -11 -4 -8 1 -9 17 -4 39 13 51 11 55 -8 1 -11
-6 -22 -19 -28 -18 -8 -16 -8 8 -3 17 4 39 8 49 9 11 1 22 7 24 14 3 9 -2 11
-17 6 -18 -6 -20 -4 -12 17 4 13 16 24 25 26 11 3 14 -1 9 -14 -4 -12 -3 -15
5 -10 15 9 16 -26 1 -41 -6 -6 -9 -19 -6 -29 4 -17 6 -17 12 4 7 20 9 21 19 7
8 -12 18 -14 34 -8 21 8 21 9 2 21 -17 10 -20 10 -20 -5 0 -26 -10 -9 -15 26
-2 21 1 31 10 31 7 0 15 3 18 8 2 4 2 1 0 -6 -6 -24 8 -34 22 -15 7 10 17 15
21 11 4 -4 2 -13 -4 -21 -6 -7 -9 -22 -6 -34 5 -17 0 -22 -27 -28 -18 -4 -42
-17 -53 -28 l-21 -21 27 17 c30 19 53 22 43 8 -3 -5 0 -13 7 -17 7 -4 10 -3 5
1 -9 10 46 35 77 35 12 0 37 11 56 25 19 14 40 25 47 25 7 0 29 9 49 20 34 19
37 20 49 4 8 -12 14 -14 19 -6 4 7 3 12 -3 12 -20 0 2 30 23 31 15 1 16 3 5 6
-15 4 -15 7 -2 34 14 29 28 40 21 17 -3 -7 1 -18 8 -25 19 -20 24 -16 15 10
-12 32 -2 44 34 42 17 -1 39 2 50 5 26 10 145 8 145 -2z m7024 -239 c31 -37
35 -97 10 -178 -11 -39 -23 -57 -47 -72 -55 -34 -128 -11 -167 54 -29 47 -25
91 12 144 51 75 63 83 117 83 43 0 53 -4 75 -31z m-2068 3 c35 -27 46 -59 39
-105 -10 -59 -29 -85 -70 -93 -73 -13 -125 36 -125 119 0 66 28 97 88 97 29 0
55 -7 68 -18z m-9479 -84 c42 -39 28 -101 -31 -137 -42 -27 -76 -27 -110 0
-36 28 -36 85 0 128 22 26 33 31 72 31 33 0 52 -6 69 -22z m10060 -62 c32 -38
30 -81 -6 -117 -33 -33 -47 -35 -97 -14 -23 10 -39 26 -49 49 -19 45 -19 44 6
85 20 32 22 33 72 28 39 -3 56 -11 74 -31z m-9745 -46 c32 -32 33 -60 3 -106
-20 -31 -79 -56 -112 -48 -40 10 -51 21 -63 62 -8 30 -6 41 12 70 37 61 111
71 160 22z m-1343 -366 c24 -30 26 -52 9 -88 -11 -26 -68 -66 -93 -66 -58 0
-101 70 -71 115 28 43 54 60 94 63 33 2 44 -2 61 -24z m-428 -25 c18 -34 2
-86 -35 -114 -57 -44 -119 -25 -132 40 -9 51 31 103 84 107 44 4 68 -5 83 -33z
m6254 -49 c-104 -4 -210 -13 -235 -19 -66 -17 -100 -32 -100 -43 0 -5 3 -8 8
-6 50 26 89 39 112 36 l27 -3 -24 -57 c-28 -63 -58 -89 -43 -37 5 17 6 37 3
45 -3 9 1 14 13 14 18 1 18 1 1 11 -13 8 -22 4 -42 -18 -13 -15 -25 -22 -25
-15 0 6 -5 12 -11 12 -6 0 -9 -7 -6 -15 4 -8 3 -17 -2 -19 -12 -8 -3 -82 20
-157 21 -70 32 -88 44 -69 4 7 19 8 36 5 22 -5 29 -3 29 9 0 9 8 16 18 17 10
0 12 3 4 6 -6 2 -10 8 -7 13 3 4 -5 6 -17 2 -13 -3 -19 -1 -15 5 4 6 0 13 -8
17 -8 3 -15 10 -15 17 0 8 16 9 52 5 29 -4 54 -9 56 -11 3 -2 13 0 23 6 23 12
24 6 3 -15 -8 -9 -11 -16 -5 -16 5 0 13 5 16 11 4 6 28 9 54 8 26 -1 52 0 58
4 6 4 13 3 15 -3 1 -5 13 -7 25 -4 13 4 20 10 17 16 -3 5 6 20 19 34 14 14 29
39 32 55 8 36 15 36 49 2 24 -24 25 -27 10 -44 -8 -9 -29 -23 -45 -29 -28 -12
-40 -30 -19 -30 6 0 10 -4 10 -10 0 -5 -7 -7 -15 -4 -11 4 -13 2 -9 -9 5 -13
9 -13 34 1 33 19 46 12 31 -17 -8 -14 -8 -22 0 -27 7 -4 8 -20 4 -41 -4 -24
-3 -33 5 -28 5 3 8 11 4 16 -6 10 26 5 80 -12 36 -11 39 -11 31 1 -4 6 6 10
22 11 28 1 28 1 -5 10 -18 5 -30 14 -27 18 8 13 65 19 63 7 -1 -6 1 -20 5 -32
6 -17 16 -21 57 -21 42 0 48 3 40 16 -4 9 -17 22 -28 30 -33 23 -17 51 29 51
22 0 39 -4 39 -10 0 -5 8 -6 17 -3 13 5 15 2 10 -11 -4 -10 -7 -32 -7 -49 0
-22 -3 -28 -9 -18 -13 20 -20 -8 -10 -37 6 -14 5 -31 -1 -42 -5 -10 -10 -27
-10 -37 1 -14 4 -13 15 7 11 19 14 21 15 8 0 -10 -12 -31 -27 -48 -21 -23 -43
-33 -88 -42 -71 -13 -352 -17 -445 -5 -36 5 -62 6 -59 2 4 -3 51 -12 105 -20
l99 -15 -93 6 c-51 2 -121 14 -156 24 -71 22 -97 48 -134 137 -31 74 -26 79 7
8 15 -33 35 -66 44 -73 10 -8 5 7 -13 40 -50 94 -107 312 -97 375 3 18 2 33
-3 33 -15 0 -23 -47 -15 -98 l6 -47 -23 45 c-27 53 -56 70 -118 70 -49 0 -110
-30 -110 -54 0 -8 -4 -17 -9 -20 -22 -14 8 50 32 68 38 28 134 34 173 11 l29
-17 -24 21 c-13 12 -34 21 -47 21 -45 0 -24 18 29 25 28 3 93 15 142 25 128
28 123 27 305 27 l165 0 -190 -7z m-806 -31 c42 -5 92 -19 115 -32 41 -22 41
-23 44 -85 2 -49 -5 -92 -33 -189 -20 -70 -43 -139 -50 -154 -18 -35 -65 -68
-118 -85 -25 -7 -33 -13 -21 -13 35 -1 94 28 125 62 16 17 29 27 29 21 0 -5
-15 -25 -33 -42 -49 -47 -136 -71 -282 -76 l-120 -5 89 9 c49 6 90 11 92 13 1
1 -81 2 -184 2 -211 0 -280 11 -312 52 -11 14 -20 33 -20 42 0 9 8 1 17 -17
10 -21 21 -31 30 -28 8 4 11 1 7 -5 -4 -8 1 -9 17 -4 19 5 21 4 9 -4 -13 -10
-13 -11 0 -11 8 0 22 5 30 10 8 5 10 10 4 10 -6 0 -11 7 -11 15 0 8 4 15 8 15
3 0 9 9 12 20 3 12 14 20 25 20 11 0 22 7 26 15 3 9 0 15 -9 15 -18 0 -20 20
-2 21 10 0 10 2 0 6 -7 2 -13 9 -13 15 0 6 7 8 15 4 21 -8 19 17 -2 36 -25 20
-82 42 -91 34 -3 -4 0 -11 7 -15 10 -7 9 -10 -8 -16 -14 -4 -21 -15 -21 -31 0
-14 -4 -23 -9 -20 -4 3 -8 16 -7 28 1 13 -2 26 -7 29 -5 4 -6 13 -1 20 4 7 6
35 5 61 -2 34 2 50 12 53 8 4 13 18 12 35 -1 23 3 30 17 30 22 0 23 7 2 28
-11 11 -13 17 -5 20 18 6 71 62 58 62 -19 0 -104 -28 -129 -42 -22 -11 -26
-13 -45 -17 -5 -1 -3 -5 2 -9 6 -4 8 -33 4 -72 l-6 -65 -3 68 c-2 37 -3 73 -4
80 -1 6 6 12 14 12 8 0 20 5 27 11 16 15 162 52 268 68 96 14 298 12 424 -5z
m1116 -4 c120 -21 202 -45 216 -61 6 -7 18 -10 26 -7 13 5 15 2 10 -18 -4 -13
-7 -49 -8 -79 l-2 -55 -7 55 c-8 64 -26 104 -42 94 -7 -4 -8 -3 -4 4 8 14 -37
27 -55 16 -8 -4 -9 -3 -5 4 5 8 -2 12 -21 12 -26 0 -27 -1 -8 -14 11 -7 29
-16 40 -19 18 -4 18 -5 -2 -6 -13 0 -23 -5 -23 -10 0 -5 10 -7 23 -5 12 2 16
2 10 -2 -18 -8 -16 -31 4 -38 30 -12 -10 -40 -59 -41 -34 -1 -42 -5 -40 -17 3
-21 -14 -32 -21 -14 -11 27 4 57 24 51 18 -6 24 3 20 33 -1 6 6 13 16 13 16 1
16 2 1 6 -9 2 -28 -3 -42 -13 -25 -16 -26 -16 -26 5 0 12 -4 20 -9 16 -16 -9
-30 27 -20 53 6 16 6 21 -2 16 -6 -3 -15 0 -20 7 -6 11 -53 14 -221 16 -247 3
-260 4 -193 14 77 11 340 2 440 -16z m5517 6 c13 -5 35 -21 50 -35 22 -23 26
-34 21 -64 -6 -41 -43 -82 -74 -82 -38 0 -80 31 -99 72 -21 47 -17 71 18 98
27 22 48 25 84 11z m-187 -108 c32 -36 35 -101 5 -128 -41 -37 -130 -9 -149
46 -15 44 -14 52 10 83 30 38 98 37 134 -1z m-6095 -72 c0 -4 11 -25 25 -46
14 -20 34 -59 45 -87 17 -46 18 -49 1 -46 -20 3 -51 -19 -51 -36 0 -7 16 -18
35 -26 19 -7 32 -17 29 -22 -3 -4 2 -8 10 -8 9 0 16 -7 16 -15 0 -8 4 -15 9
-15 5 0 13 -9 16 -21 9 -26 72 -90 114 -115 20 -12 35 -31 41 -54 13 -47 13
-50 -10 -87 -21 -35 -45 -36 -56 -1 -3 12 -29 31 -61 45 l-56 26 -44 -47 c-38
-39 -51 -46 -82 -46 -28 0 -44 7 -65 29 -43 45 -70 47 -127 10 -27 -17 -53
-38 -58 -46 -21 -39 -70 18 -55 64 19 58 28 74 40 69 8 -3 21 6 31 22 10 15
20 29 23 32 4 3 12 20 19 38 8 17 17 32 22 32 5 0 9 8 9 19 0 10 25 44 55 76
30 32 55 62 55 67 0 4 6 8 13 8 8 0 8 3 -2 9 -13 8 -13 12 -1 26 12 15 12 18
-4 27 -15 8 -16 12 -5 19 10 6 11 9 2 9 -7 0 -13 7 -13 15 0 8 5 15 11 15 5 0
7 4 4 10 -3 5 3 15 14 21 10 7 17 19 14 26 -3 8 3 13 16 13 12 0 21 -4 21 -9z
m6919 -65 c34 -55 25 -118 -20 -141 -25 -13 -33 -13 -68 1 -31 12 -43 25 -56
56 -28 71 2 118 76 118 43 0 49 -3 68 -34z m-12004 -81 c48 -48 20 -134 -54
-164 -69 -29 -142 49 -108 116 38 72 115 96 162 48z m6485 -82 c0 -14 -23 -43
-34 -43 -7 0 -26 -15 -43 -32 -16 -18 -43 -43 -58 -55 -25 -20 -31 -21 -45 -8
-10 9 -16 34 -18 65 -2 42 1 50 16 50 10 0 22 4 28 10 5 5 35 11 67 12 31 2
57 6 57 10 0 4 7 5 15 2 8 -4 15 -8 15 -11z m-2751 -78 c17 -6 22 -5 17 3 -5
8 1 12 15 12 12 0 20 -3 16 -6 -3 -4 0 -13 8 -21 17 -16 22 -193 6 -193 -5 0
-12 -7 -15 -15 -4 -11 3 -19 19 -25 28 -11 33 -41 10 -60 -23 -19 -29 -77 -16
-148 14 -76 8 -86 -51 -76 l-36 5 14 -42 c8 -23 12 -44 10 -47 -12 -11 -114
85 -114 108 0 3 -5 25 -12 50 -8 28 -10 69 -5 110 3 36 9 107 13 159 5 60 11
96 19 98 7 3 -4 20 -27 42 -22 21 -40 43 -40 49 0 12 130 10 169 -3z m-149
-71 c11 -29 12 -186 1 -224 -6 -21 -12 -12 -44 68 -40 100 -46 145 -21 180 12
18 19 20 35 11 11 -5 24 -21 29 -35z m1236 21 c-11 -8 -16 -15 -11 -15 5 0 -1
-10 -12 -22 -31 -33 -65 -104 -66 -136 -2 -60 3 -113 12 -108 4 3 13 -6 19
-19 9 -20 9 -23 -4 -18 -11 4 -15 0 -13 -13 2 -10 -1 -29 -5 -41 -6 -20 -10
-21 -29 -11 -20 10 -21 10 -9 -5 11 -13 10 -18 -12 -32 -14 -10 -26 -24 -26
-32 0 -9 -6 -12 -17 -9 -15 5 -18 -1 -20 -36 -3 -43 -21 -67 -35 -45 -7 10
-11 4 -10 -14 0 -3 -9 -11 -20 -18 -18 -11 -20 -11 -14 3 3 9 9 23 12 32 5 12
1 15 -17 12 -17 -2 -27 -13 -35 -37 -6 -18 -19 -38 -29 -43 -28 -16 -50 -42
-51 -60 -2 -48 -4 -61 -10 -55 -20 20 -2 117 20 102 3 -3 1 2 -6 9 -17 19 -50
24 -55 9 -3 -7 1 -13 9 -13 9 0 13 -13 13 -40 0 -22 -3 -40 -7 -40 -5 0 -8 5
-8 11 0 5 -5 7 -10 4 -7 -4 -8 3 -4 20 6 25 5 26 -14 14 -19 -12 -20 -16 -8
-34 12 -18 12 -24 0 -39 -13 -18 -14 -18 -24 8 -5 15 -10 30 -10 34 0 12 -44
52 -57 52 -8 0 -21 -7 -29 -15 -9 -8 -21 -15 -27 -15 -6 0 -2 7 10 15 24 17
21 45 -4 45 -13 0 -13 -3 -3 -15 8 -10 9 -15 2 -15 -18 0 -61 52 -55 66 3 8
-1 14 -10 14 -8 0 -18 7 -21 16 -10 25 -7 82 4 89 14 8 13 45 -1 45 -6 0 -13
-9 -16 -20 -3 -11 -9 -20 -13 -20 -12 0 -17 69 -6 80 7 7 5 10 -4 10 -11 0
-11 3 -2 12 16 16 15 28 -2 28 -11 0 -14 14 -13 55 2 38 -2 55 -10 55 -7 0
-13 11 -13 25 0 14 5 25 10 25 16 0 30 44 16 52 -7 5 -4 8 8 8 13 0 16 5 12
16 -4 12 -2 15 9 10 53 -20 164 -28 314 -23 210 6 353 36 391 81 7 9 18 16 24
16 6 0 2 -7 -8 -15z m1578 -1 c3 -9 6 -28 6 -44 0 -16 7 -59 16 -97 20 -83 14
-204 -11 -253 l-17 -34 -14 25 c-7 13 -13 20 -14 15 0 -6 -7 -1 -15 10 -8 10
-15 15 -15 9 -3 -29 -19 38 -19 83 -1 29 -8 69 -16 89 -11 25 -12 40 -5 47 5
5 10 28 10 50 0 33 7 47 37 78 41 42 48 45 57 22z m-1007 -40 c77 -24 242 -37
383 -31 121 6 190 18 299 53 18 5 22 4 16 -6 -4 -7 -2 -16 6 -21 12 -7 12 -12
1 -29 -8 -13 -10 -26 -4 -33 15 -21 1 -170 -20 -214 -8 -17 -8 -26 2 -38 8
-10 9 -15 1 -15 -6 0 -11 -7 -11 -16 0 -8 -4 -12 -10 -9 -6 4 -10 -6 -11 -22
-1 -27 -1 -27 -8 -4 -7 25 -31 42 -31 21 0 -6 7 -22 16 -35 9 -13 13 -29 9
-35 -4 -6 -1 -17 5 -25 20 -24 3 -17 -21 8 l-21 22 4 -31 c3 -24 1 -31 -9 -27
-7 3 -13 9 -13 14 0 14 -30 11 -45 -5 -8 -7 -11 -17 -7 -21 4 -5 -1 -5 -10 -2
-25 9 -22 -4 8 -33 15 -13 21 -26 15 -28 -6 -2 -9 -8 -5 -13 7 -12 -12 -12
-35 0 -10 6 -23 6 -31 1 -17 -11 -11 -18 18 -23 12 -2 25 -7 29 -11 5 -4 1 -6
-7 -4 -9 2 -14 -4 -14 -14 1 -11 -5 -18 -17 -18 -10 0 -21 -4 -24 -10 -3 -5
-1 -10 6 -10 10 0 10 -3 1 -12 -13 -13 -16 -29 -4 -27 19 3 22 -2 9 -16 -14
-13 -19 -11 -51 21 -34 34 -61 84 -37 70 6 -4 14 0 17 8 7 19 -115 176 -136
173 -8 -1 -19 8 -25 20 -5 12 -22 25 -37 28 -16 4 -28 11 -28 17 0 6 -3 8 -6
5 -4 -4 -1 -13 6 -22 8 -10 9 -15 1 -15 -6 0 -18 12 -28 28 -21 34 -42 52 -62
52 -14 0 -14 -1 -1 -10 8 -5 10 -10 5 -10 -18 0 -55 31 -55 46 0 8 -5 14 -11
14 -6 0 -8 7 -5 16 5 13 1 15 -18 10 -14 -3 -28 -2 -31 4 -3 5 0 10 7 10 10 0
11 2 0 8 -10 7 -8 15 9 36 46 59 34 152 -29 207 -20 18 -28 29 -17 25 11 -5
39 -14 62 -22z m-485 -188 c11 -12 17 -12 40 0 29 15 53 11 62 -12 9 -22 98
-18 128 6 28 22 59 17 102 -15 24 -18 38 -44 16 -30 -5 3 -10 0 -10 -9 0 -8
-7 -13 -17 -11 -29 4 -34 -5 -17 -30 9 -13 14 -30 12 -37 -3 -8 -10 -3 -18 12
-21 40 -70 70 -56 35 3 -9 0 -15 -9 -15 -10 0 -13 -11 -12 -40 1 -34 5 -40 23
-40 26 0 36 -19 20 -36 -8 -9 -17 -7 -35 9 -20 18 -23 19 -18 5 7 -21 -4 -23
-21 -6 -9 9 -12 8 -12 -5 0 -10 -8 -17 -20 -17 -12 0 -20 -7 -20 -16 0 -17 1
-17 105 0 11 2 24 4 28 5 5 0 6 5 2 10 -3 5 -1 13 5 16 6 4 9 16 6 28 -3 14
-1 12 6 -5 13 -31 37 -40 79 -28 16 5 27 5 24 0 -3 -4 6 -15 20 -24 16 -10 26
-12 30 -5 5 6 12 4 19 -7 9 -11 21 -15 35 -11 11 3 21 1 21 -4 0 -5 9 -9 21
-9 15 0 19 5 15 15 -7 19 4 19 32 -1 12 -8 22 -24 22 -35 0 -10 5 -19 10 -19
6 0 10 8 10 17 0 25 13 7 16 -23 4 -34 12 -42 25 -24 9 13 10 12 5 -2 -3 -10
-1 -20 5 -24 7 -4 5 -12 -5 -23 -19 -21 -10 -34 14 -21 14 8 19 3 29 -29 11
-39 65 -101 87 -101 7 0 15 -14 19 -30 4 -17 10 -28 15 -25 5 3 11 -1 13 -7 3
-7 6 -1 6 15 1 15 -3 27 -8 27 -5 0 -15 20 -22 45 -7 25 -16 45 -19 45 -3 0
-5 13 -6 29 -1 21 3 28 12 24 8 -3 14 -11 14 -18 0 -6 16 -29 36 -49 20 -20
34 -40 30 -43 -3 -3 3 -17 14 -30 19 -24 17 -51 -4 -65 -6 -4 -1 -8 12 -8 33
0 28 -30 -5 -30 -26 -1 -27 -2 -10 -14 18 -14 17 -14 -2 -21 -12 -3 -26 -3
-32 1 -8 4 -9 3 -5 -5 4 -6 2 -18 -4 -27 -10 -12 -16 -12 -28 -2 -13 11 -15
10 -10 -9 5 -19 2 -23 -15 -23 -20 0 -20 0 -1 -15 18 -14 17 -15 -11 -10 -27
5 -28 4 -12 -7 52 -36 54 -39 20 -33 -21 4 -33 3 -33 -4 0 -6 8 -11 18 -11 12
0 10 -4 -8 -13 -14 -7 -26 -23 -28 -35 -2 -12 -7 -20 -12 -17 -5 3 -12 0 -16
-6 -3 -6 -1 -15 6 -19 8 -5 4 -8 -13 -7 -14 1 -23 5 -20 10 2 4 -3 7 -11 7
-19 0 -20 -13 -5 -43 8 -16 4 -14 -13 7 -22 26 -25 27 -37 12 -13 -15 -16 -15
-37 5 -13 12 -27 20 -30 16 -4 -3 -21 1 -38 10 -17 10 -36 16 -43 15 -6 -1
-15 7 -18 19 -6 17 -9 18 -16 8 -4 -8 -3 -19 3 -26 6 -8 7 -17 3 -21 -4 -4
-10 -1 -12 6 -3 6 -9 10 -14 6 -5 -3 -9 2 -9 10 0 9 -5 16 -11 16 -6 0 -9 6
-6 13 3 7 -3 13 -13 13 -12 0 -16 -6 -12 -16 4 -12 2 -13 -8 -3 -10 9 -17 10
-27 2 -19 -16 -16 -30 5 -22 15 6 15 5 3 -10 -18 -23 -31 -21 -31 3 0 14 -7
20 -24 20 -13 0 -27 6 -29 13 -4 9 -6 9 -6 -1 -1 -7 10 -17 24 -22 25 -10 32
-34 16 -58 -6 -11 -10 -10 -15 4 -4 10 -1 21 6 26 7 4 8 8 2 8 -5 0 -15 -5
-21 -11 -14 -14 -36 22 -27 44 4 11 -4 17 -26 22 -27 6 -29 9 -18 23 11 15 11
15 -3 4 -20 -15 -82 -5 -72 12 4 6 8 17 10 25 1 8 10 21 19 30 17 15 17 15 5
-1 -8 -11 -9 -18 -3 -18 6 0 14 5 18 11 4 8 9 7 15 -2 6 -10 9 -10 9 -2 0 6 9
10 20 8 11 -2 20 1 20 7 0 7 13 8 35 5 27 -4 35 -2 35 9 0 9 -5 12 -11 8 -6
-3 -15 0 -20 7 -7 12 -9 12 -9 0 0 -11 -5 -10 -20 4 -11 10 -20 13 -20 7 0 -7
-5 -12 -10 -12 -6 0 -5 8 2 20 7 11 18 18 25 16 6 -3 14 0 16 7 3 9 8 9 18 0
16 -16 38 -18 22 -2 -7 7 -8 24 -2 47 7 34 6 35 -7 18 -13 -19 -14 -18 -14 10
0 26 -6 33 -47 51 -38 17 -50 18 -56 8 -4 -8 -20 -16 -36 -20 -33 -7 -58 -40
-68 -86 -5 -24 -3 -31 8 -27 7 2 16 15 19 28 8 35 27 36 22 1 -6 -41 -28 -59
-52 -43 -14 9 -19 8 -24 -3 -3 -8 0 -15 7 -15 8 0 7 -4 -3 -10 -21 -14 47 0
78 16 25 13 65 8 56 -8 -3 -5 -11 -7 -17 -5 -7 2 -23 -4 -36 -14 -26 -20 -46
-25 -36 -9 9 15 -1 12 -33 -7 -16 -10 -27 -24 -25 -30 3 -7 0 -13 -7 -13 -6 0
-20 -9 -32 -20 l-22 -20 27 0 c15 0 27 -2 27 -4 0 -17 -17 -39 -39 -50 -28
-14 -55 -11 -45 6 8 13 -7 5 -51 -26 -16 -12 -43 -28 -60 -36 -16 -8 -36 -22
-43 -30 -11 -13 -12 -12 -3 6 14 29 -22 71 -43 52 -8 -7 -12 -16 -10 -20 2 -4
0 -9 -5 -12 -5 -3 -11 1 -15 9 -3 8 -1 15 4 15 23 0 7 17 -30 34 -31 13 -40
23 -40 42 0 16 -8 27 -22 33 -13 5 -33 19 -46 31 -18 17 -22 28 -17 52 8 35
-10 31 -25 -6 -8 -20 -9 -20 -9 4 0 14 4 32 9 40 5 8 10 11 10 7 0 -12 40 12
40 24 0 6 -4 7 -10 4 -15 -9 -12 1 10 44 10 21 16 41 13 45 -4 3 -1 6 6 6 8 0
11 7 7 15 -3 9 8 24 29 41 19 14 35 35 35 46 0 10 -4 16 -10 13 -5 -3 -10 -2
-10 3 0 14 28 23 35 12 4 -6 3 -15 -1 -22 -4 -6 -3 -8 4 -4 6 3 14 21 17 38 7
31 8 31 22 12 15 -18 15 -18 9 3 -5 16 -2 23 13 28 11 3 20 9 18 13 -1 4 3 9
8 11 20 9 32 26 28 38 -3 6 3 10 13 9 10 -2 20 -8 22 -14 6 -20 20 -13 34 16
10 20 20 27 42 26 22 -1 27 2 23 17 -5 20 9 27 15 8 2 -6 14 -1 27 10 13 12
28 21 33 21 5 0 7 8 4 18 -3 9 -1 24 5 32 9 12 10 10 6 -8 -4 -18 0 -25 19
-33 34 -12 37 -12 30 8 -4 9 -1 20 6 25 9 6 7 8 -7 5 -11 -2 -19 -10 -17 -18
3 -11 1 -11 -9 -2 -10 10 -7 16 12 32 33 28 38 26 35 -11 -2 -18 -1 -37 1 -41
6 -10 33 39 33 59 0 8 4 14 10 14 5 0 7 7 4 15 -8 19 -51 10 -81 -18 -15 -13
-23 -16 -23 -8 0 7 -6 11 -15 8 -12 -5 -12 -2 -3 18 6 14 18 25 26 25 12 0 12
-3 2 -15 -22 -26 -5 -26 26 0 16 14 33 25 37 25 5 0 6 4 3 9 -3 5 -16 7 -28 3
-15 -4 -19 -2 -14 7 6 8 2 11 -10 9 -11 -2 -18 2 -17 8 2 8 -8 9 -32 4 -20 -5
-33 -4 -29 1 11 19 -8 31 -24 15 -15 -13 -19 -13 -37 1 -14 11 -16 17 -7 20 6
3 12 9 12 15 0 11 29 37 42 38 4 0 13 -6 20 -14z m933 -1396 c-8 -12 5 -13 24
-1 22 14 56 -27 52 -66 -2 -26 1 -33 14 -33 14 0 15 -3 6 -14 -6 -8 -11 -18
-10 -22 3 -20 -2 -28 -10 -15 -12 18 -36 8 -52 -20 -10 -19 -9 -21 5 -16 11 5
16 1 16 -13 0 -13 7 -20 20 -20 27 0 34 -20 21 -66 -8 -30 -7 -39 4 -48 13
-10 13 -14 0 -39 -8 -15 -12 -34 -9 -41 3 -8 1 -17 -5 -20 -7 -5 -7 -14 2 -28
9 -16 9 -22 0 -25 -21 -7 -15 -26 6 -20 16 4 19 0 16 -27 -2 -17 -4 -35 -6
-41 -2 -5 5 -24 14 -42 9 -17 13 -34 8 -37 -12 -8 -11 -56 1 -56 6 0 8 -6 5
-14 -3 -8 -1 -17 6 -20 7 -2 -1 -5 -18 -6 -29 -1 -29 -2 -7 -12 12 -6 25 -23
29 -37 3 -14 9 -30 12 -36 4 -5 7 -26 6 -45 0 -27 6 -38 24 -47 12 -7 28 -10
34 -6 6 4 8 0 4 -10 -11 -30 11 -18 63 33 53 52 120 174 120 218 0 14 -20 44
-52 78 -50 53 -51 55 -23 48 53 -12 123 -53 137 -78 35 -66 83 -144 104 -169
26 -31 24 -47 -5 -47 -10 0 -40 -12 -67 -26 -48 -25 -358 -231 -392 -260 -19
-15 -118 -85 -282 -196 -58 -39 -115 -78 -126 -87 -12 -9 -32 -23 -44 -31 -12
-8 -73 -54 -135 -102 -102 -79 -165 -114 -247 -138 -19 -6 -33 -4 -47 8 -22
18 -92 69 -261 187 -58 41 -109 78 -115 82 -5 5 -39 31 -75 58 -121 91 -250
207 -250 225 0 5 -5 10 -10 10 -23 0 -70 63 -82 108 -6 26 -14 49 -17 52 -3 3
-6 10 -6 15 -1 6 -5 30 -9 55 -4 25 -6 61 -4 80 l4 35 13 -45 c10 -36 29 -70
76 -138 1 -1 16 3 33 9 36 12 59 55 65 122 2 26 7 50 11 54 3 3 -1 14 -10 24
-14 16 -14 19 5 38 26 26 26 31 3 31 -14 0 -18 8 -18 35 0 22 5 35 13 35 21 0
15 41 -7 47 -29 8 -27 53 3 54 16 1 18 2 5 6 -24 6 -23 24 2 51 23 24 27 40 6
23 -10 -8 -16 -9 -21 -1 -3 5 -1 10 4 10 16 0 13 29 -3 45 -9 10 -13 32 -11
70 2 44 -1 58 -15 68 -25 17 -34 53 -16 60 17 7 30 -8 21 -23 -4 -6 5 -10 20
-10 14 0 28 -7 31 -15 4 -8 14 -15 24 -15 10 0 20 7 24 15 3 8 15 15 26 15 12
0 20 7 20 18 0 14 2 15 10 2 5 -8 10 -26 10 -40 0 -20 -2 -22 -10 -10 -5 8
-10 11 -10 5 1 -15 26 -45 38 -45 6 0 11 -10 11 -22 0 -13 1 -33 1 -44 0 -13
8 -24 21 -27 21 -6 23 -34 4 -50 -10 -9 -7 -8 41 7 13 4 21 2 22 -6 1 -7 4
-25 8 -40 5 -22 2 -27 -17 -31 -22 -4 -22 -4 4 -6 15 0 27 -6 27 -12 0 -6 9
-9 20 -6 11 3 23 1 26 -5 3 -5 -4 -12 -17 -15 l-23 -6 22 -8 c13 -5 19 -14 16
-22 -3 -8 2 -17 10 -20 8 -3 12 -14 10 -24 -4 -14 1 -19 16 -20 18 -2 19 1 9
13 -9 11 -9 21 -1 39 9 20 9 25 -2 25 -9 0 -13 11 -12 32 2 32 19 48 31 29 3
-6 13 -11 22 -11 13 0 13 3 -4 18 -17 15 -35 45 -37 64 -1 3 -4 10 -8 14 -15
15 -8 24 20 24 24 1 25 2 10 14 -23 17 -23 22 2 29 13 3 20 0 20 -9 0 -15 28
-17 70 -5 23 6 23 8 6 14 -10 4 -28 5 -40 2 -12 -3 -15 -2 -9 1 8 3 11 15 7
30 -7 27 10 33 24 8 5 -9 12 -16 15 -15 18 1 35 -12 31 -24 -3 -7 -1 -16 5
-20 7 -3 11 3 11 15 0 19 4 21 25 16 14 -4 25 -3 25 2 0 5 -11 14 -25 20 -35
16 -33 36 3 28 15 -4 35 -7 45 -7 9 0 15 -4 12 -10 -4 -5 -2 -9 3 -9 5 0 15
11 22 25 10 19 16 22 26 14 16 -13 68 -3 59 11 -3 5 -11 8 -18 6 -7 -1 -9 -1
-4 1 4 3 5 8 3 11 -2 4 20 8 50 8 33 1 51 -2 48 -8 -6 -10 47 -5 101 8 16 4
17 3 5 -5 -12 -9 -10 -11 10 -11 20 0 22 -2 10 -10 -9 -6 -10 -10 -3 -10 6 0
15 5 18 10 5 9 44 8 65 0 3 -1 10 -2 15 -1 6 1 -1 -8 -14 -19 -13 -11 -34 -20
-48 -20 -13 0 -22 -4 -19 -9 3 -5 16 -7 29 -4 18 4 19 3 7 -6 -8 -6 -26 -11
-40 -12 l-25 -1 25 -8 c14 -4 21 -9 15 -9 -5 -1 -2 -7 7 -15 19 -14 81 -10 72
5 -3 5 1 9 9 9 16 0 32 -45 22 -60 -4 -6 -2 -10 2 -10 15 0 33 23 33 42 0 10
4 18 8 18 5 0 15 11 22 25 12 23 23 27 110 40 3 0 18 9 33 20 24 15 32 16 48
7 14 -9 25 -9 39 -2 29 15 58 12 63 -7 4 -16 5 -16 6 -1 0 9 -11 30 -25 47
-14 17 -22 31 -18 31 4 0 5 2 2 5 -3 3 -17 1 -31 -6 -21 -10 -28 -8 -47 11
-25 25 -25 78 0 71 8 -2 26 -6 40 -9 13 -3 31 -12 40 -20 13 -14 15 -14 18 1
2 9 10 17 18 17 17 0 18 12 2 29 -10 11 -10 12 -1 7 21 -12 52 -15 58 -7 2 5
-5 8 -17 7 -17 -1 -24 7 -32 32 -5 17 -15 32 -22 32 -20 0 -26 18 -12 34 15
17 33 21 23 6z m1403 -3385 c10 -10 -11 -23 -45 -30 -75 -13 -435 -116 -655
-187 -110 -35 -183 -65 -240 -99 -76 -45 -339 -179 -352 -179 -3 0 -34 -13
-68 -30 -34 -16 -65 -30 -70 -30 -5 0 -7 62 -6 137 l3 137 30 8 c17 5 98 26
180 48 83 21 211 60 285 85 199 69 298 88 700 134 156 18 224 20 238 6z
m-3512 -102 c-32 -82 -46 -163 -47 -273 -2 -152 38 -275 112 -347 60 -58 136
-90 243 -103 49 -6 93 -13 97 -16 16 -9 22 -74 9 -89 -9 -11 -11 -41 -8 -104
7 -111 -7 -387 -20 -422 -8 -20 -23 -29 -69 -42 -217 -63 -393 -45 -545 56
-142 95 -187 169 -195 326 -9 166 20 264 193 642 111 243 217 429 245 429 4 0
-3 -26 -15 -57z m-2347 -70 c-3 -36 2 -49 11 -28 7 16 9 17 9 3 1 -9 -7 -22
-16 -27 -12 -7 -13 -10 -4 -11 9 0 11 -7 6 -27 -4 -16 -8 -37 -9 -48 -2 -29
-56 -30 -57 0 -2 25 -16 -39 -27 -118 -5 -32 -13 -62 -19 -65 -5 -4 -10 -14
-10 -22 0 -8 -2 -19 -3 -25 -1 -5 -2 -18 -1 -29 1 -16 3 -16 17 -5 11 9 14 22
10 43 -5 24 -4 28 5 16 9 -13 10 -12 5 3 -8 23 3 44 14 27 5 -8 9 -7 13 5 4 9
3 14 -2 11 -5 -3 -11 1 -15 9 -3 8 -1 15 4 15 5 0 12 11 16 25 3 14 12 25 19
25 7 0 16 6 18 13 3 6 6 2 6 -10 1 -13 -5 -23 -13 -23 -7 0 -16 -9 -19 -19 -3
-14 -1 -18 9 -14 8 3 11 9 8 14 -3 5 0 9 5 9 17 0 13 -28 -6 -48 -10 -10 -25
-27 -33 -37 -14 -19 -14 -19 6 -2 31 26 46 22 34 -9 -6 -14 -10 -38 -10 -53 0
-15 -6 -33 -12 -40 -10 -11 -10 -12 -1 -7 10 5 11 -1 6 -26 -3 -18 -10 -41
-14 -50 -5 -9 -9 -42 -9 -72 0 -31 -4 -56 -10 -56 -6 0 -8 -11 -4 -26 5 -20 3
-25 -7 -22 -8 3 -15 11 -15 19 -1 8 -2 20 -3 28 -2 26 -12 4 -16 -35 -2 -24 0
-32 5 -24 12 19 22 8 14 -14 -4 -9 -13 -15 -20 -12 -8 3 -14 1 -14 -4 0 -17
28 -11 39 7 5 10 12 16 14 13 8 -8 -19 -161 -29 -168 -5 -4 -9 -14 -9 -22 0
-8 -6 -16 -12 -16 -7 -1 -16 -3 -20 -4 -5 -1 -11 -2 -15 -2 -13 2 -15 -23 -3
-35 10 -9 14 -7 18 9 3 11 10 17 16 13 6 -3 8 -12 4 -18 -4 -7 -7 -20 -8 -29
0 -10 -3 -18 -7 -18 -5 0 -12 0 -18 0 -5 0 -10 7 -10 16 0 8 -5 12 -10 9 -6
-4 -8 -10 -5 -15 10 -16 14 -81 5 -75 -6 4 -10 1 -10 -6 0 -6 -7 -17 -17 -24
-17 -13 -11 -51 7 -40 5 3 10 1 10 -6 0 -7 3 -10 6 -7 3 4 1 15 -5 25 -8 15
-6 22 9 33 15 11 19 23 16 48 -4 28 -2 31 10 21 9 -7 12 -24 9 -48 -2 -20 -7
-74 -11 -121 -7 -93 -10 -104 -27 -94 -8 5 -8 3 1 -7 15 -16 16 -46 0 -55 -7
-4 -8 -3 -4 4 4 7 2 12 -3 12 -6 0 -11 -4 -11 -10 0 -5 -6 -10 -14 -10 -8 0
-18 -4 -21 -10 -4 -6 6 -7 26 -3 28 5 31 4 26 -11 -4 -10 -7 -24 -7 -32 0 -9
-3 -13 -7 -11 -5 3 -9 -11 -10 -32 -3 -57 -13 -101 -23 -101 -5 0 -6 8 -3 17
6 15 5 16 -9 3 -15 -14 -15 -17 0 -33 12 -13 13 -20 4 -29 -7 -7 -12 -25 -12
-40 0 -19 -5 -28 -16 -28 -8 0 -13 4 -9 9 3 5 1 12 -5 16 -5 3 -10 2 -10 -4 0
-6 -6 -8 -14 -5 -21 8 -29 -29 -12 -60 l14 -27 4 30 c3 23 1 28 -11 24 -13 -4
-13 -2 1 6 20 13 48 4 48 -16 0 -8 -4 -12 -9 -9 -4 3 -6 -5 -4 -17 3 -14 -4
-33 -16 -47 -18 -21 -22 -23 -31 -10 -15 23 -31 -6 -28 -52 1 -20 -1 -41 -6
-45 -4 -4 -6 35 -2 87 3 52 6 117 6 143 0 40 4 49 22 56 19 7 19 8 4 14 -13 5
-16 14 -13 30 3 12 8 63 12 112 3 50 8 109 11 132 l5 41 29 -16 c23 -13 32
-14 41 -5 9 9 7 11 -8 7 -25 -7 -39 12 -24 30 8 9 7 13 -4 13 -8 0 -12 -4 -9
-9 3 -4 0 -8 -5 -8 -16 0 -14 32 15 185 17 87 33 145 42 153 11 8 12 12 3 12
-9 0 -11 9 -6 33 10 44 28 61 23 22 -1 -16 -7 -34 -13 -38 -6 -5 -4 -7 4 -5 8
2 16 17 18 34 2 16 8 41 13 57 7 22 6 27 -7 27 -11 0 -14 6 -9 23 3 12 6 27 6
34 0 6 7 19 16 27 8 9 11 16 6 16 -12 0 -3 90 10 107 6 7 8 19 5 26 -7 19 14
127 25 127 5 0 6 9 3 20 -4 12 -1 27 5 35 10 12 10 15 -1 15 -10 0 -10 3 -1
12 7 7 12 20 12 30 0 10 5 18 11 18 5 0 8 4 4 9 -7 13 26 161 37 161 5 0 11
-6 14 -14 3 -8 13 -17 22 -21 13 -5 14 -3 5 6 -9 9 -9 16 0 30 13 22 2 38 -15
21 -21 -21 -31 -13 -24 21 4 17 9 40 11 51 6 25 17 34 22 19 5 -14 24 -18 22
-5 -2 12 1 22 7 22 3 0 4 -8 3 -17z m4326 -180 c5 -21 7 -86 6 -145 -2 -60 1
-108 6 -108 4 0 8 -11 8 -25 0 -32 -13 -33 -17 -1 l-3 25 -80 -35 c-44 -20
-129 -54 -190 -76 -60 -22 -139 -56 -175 -75 -36 -20 -104 -50 -152 -69 -121
-46 -142 -58 -233 -134 -44 -37 -127 -99 -185 -139 -58 -40 -130 -90 -160
-112 -113 -81 -203 -139 -218 -139 -11 0 -13 7 -9 29 12 56 28 286 23 321 -3
19 -2 88 1 152 l6 116 101 45 c56 25 153 69 216 97 63 28 138 62 165 75 176
85 185 88 550 159 127 25 248 52 270 60 58 21 62 20 70 -21z m-732 -1257 c27
-2 51 -6 53 -9 3 -2 -4 -85 -15 -183 -12 -99 -27 -244 -36 -323 -8 -79 -17
-146 -20 -149 -3 -3 -31 -1 -62 4 l-58 9 3 55 c2 30 14 160 28 288 13 128 24
250 24 271 0 41 6 52 23 46 7 -2 34 -6 60 -9z m1031 -89 c40 -31 57 -84 47
-153 -9 -66 -44 -119 -111 -168 -17 -12 -21 -20 -12 -23 25 -10 166 -236 154
-247 -3 -3 -38 -6 -78 -6 l-72 0 -67 110 c-59 97 -71 110 -100 116 -65 12 -69
7 -78 -86 -4 -47 -10 -104 -13 -128 l-5 -43 -62 3 -62 3 3 140 c5 200 17 298
47 395 15 47 28 86 29 87 1 2 31 6 67 9 35 4 96 10 134 14 102 10 141 5 179
-23z m-1639 -87 c76 -184 86 -292 38 -425 l-28 -80 -3 44 -3 43 -80 -6 -79 -7
0 38 c0 65 9 83 40 83 15 0 42 3 59 6 36 8 37 6 -11 127 -17 42 -35 77 -40 77
-10 0 -6 85 5 96 4 4 7 19 7 33 0 36 17 56 51 60 3 1 23 -40 44 -89z m5259
-918 c6 -18 4 -22 -13 -22 -14 0 -21 -6 -21 -20 0 -24 13 -26 34 -4 15 14 16
13 16 -8 0 -19 2 -20 11 -8 7 11 12 12 15 3 3 -7 13 -9 21 -6 13 5 15 2 10
-11 -4 -10 -7 -26 -7 -37 0 -19 -5 -19 -92 -13 -51 3 -96 11 -99 16 -4 7 -9 7
-13 0 -8 -14 -56 -8 -67 9 -24 38 1 58 70 57 34 -1 56 3 61 12 4 7 13 10 19 6
6 -4 2 13 -8 37 -19 44 -19 44 2 66 l22 22 16 -38 c9 -21 19 -48 23 -61z"/>
<path d="M5332 8987 c-39 -5 -70 -13 -67 -17 8 -13 -37 -100 -51 -100 -25 0
-26 -22 -2 -55 12 -19 28 -36 33 -38 6 -2 1 -2 -10 0 -11 3 -27 5 -35 5 -8 1
-18 5 -21 11 -7 10 -59 -30 -59 -45 0 -5 10 0 22 11 25 24 48 12 48 -25 0 -27
17 -31 46 -9 23 17 43 20 26 3 -9 -9 -5 -16 18 -30 38 -22 117 -24 148 -2 12
8 27 12 32 9 6 -3 24 3 40 15 27 19 35 19 31 -2 0 -5 4 -8 9 -8 6 0 10 5 10
12 0 7 12 24 27 40 18 19 27 39 27 63 1 19 2 35 4 35 2 0 24 -9 50 -19 26 -11
54 -21 63 -24 22 -7 32 -47 12 -47 -9 0 -13 6 -9 15 3 9 0 15 -9 15 -8 0 -12
-6 -9 -14 4 -10 -10 -17 -48 -26 -29 -7 -64 -19 -78 -27 l-25 -14 27 5 c16 4
28 1 31 -7 4 -9 6 -9 6 1 1 7 15 12 35 12 18 0 50 7 69 15 51 21 58 19 52 -12
-3 -16 -2 -22 1 -15 3 6 10 12 15 12 14 0 6 -24 -11 -32 -12 -5 -12 -7 3 -7
18 -1 25 -21 7 -21 -5 0 -10 -5 -10 -11 0 -5 5 -7 10 -4 6 3 10 1 10 -4 0 -56
66 99 71 166 2 22 -2 47 -9 55 -6 8 -8 19 -4 23 4 5 2 5 -5 1 -6 -3 -15 0 -20
7 -4 8 -25 25 -45 39 -21 13 -36 27 -33 30 3 2 -1 5 -7 5 -7 0 -51 3 -98 7
-47 4 -80 3 -73 -1 7 -5 -23 -8 -67 -8 -43 0 -76 3 -74 6 7 13 -31 15 -104 6z"/>
<path d="M6142 7916 c-15 -8 -19 -15 -12 -22 14 -14 -4 -29 -43 -38 -23 -6
-28 -4 -25 11 2 14 -3 17 -27 15 -16 -1 -46 -3 -65 -5 -33 -2 -35 -4 -32 -29
3 -17 0 -28 -7 -28 -7 0 -11 6 -10 13 3 24 -1 37 -12 37 -6 0 -9 -7 -5 -15 6
-18 5 -18 -27 -6 -19 7 -35 5 -63 -10 -21 -10 -34 -19 -29 -19 6 0 1 -7 -9
-15 -11 -8 -16 -15 -10 -15 5 -1 -7 -8 -26 -16 -19 -8 -38 -22 -43 -30 -4 -8
-23 -14 -42 -14 -19 0 -37 -4 -40 -10 -4 -6 5 -10 20 -10 20 0 26 -4 21 -15
-4 -10 1 -15 14 -15 11 0 20 5 20 11 0 17 123 8 138 -10 11 -14 11 -14 6 3 -6
16 -4 17 13 8 11 -6 23 -9 25 -6 3 2 32 7 64 10 32 2 106 9 164 14 58 5 112
10 120 9 88 -1 145 3 182 14 61 18 86 11 105 -27 8 -18 23 -37 33 -44 15 -9
19 -7 23 9 4 14 2 19 -8 15 -8 -3 -18 7 -25 24 -10 25 -10 32 4 45 20 20 21
35 2 35 -8 0 -16 7 -20 15 -3 8 -12 15 -21 15 -8 0 -15 3 -15 8 0 9 -71 48
-82 44 -5 -1 -11 5 -14 13 -4 8 -14 15 -23 15 -14 0 -14 2 -1 10 9 6 10 10 3
10 -6 0 -15 -4 -18 -10 -3 -5 -14 -10 -23 -10 -13 0 -13 2 4 15 10 8 14 15 8
15 -13 0 -32 -20 -32 -33 0 -17 -12 -19 -18 -3 -3 9 -11 16 -16 16 -7 0 -7 -5
0 -13 8 -9 6 -16 -8 -25 -15 -9 -21 -9 -27 1 -5 8 -10 4 -15 -13 -6 -20 -7
-19 -3 8 4 26 1 32 -14 32 -15 0 -18 -5 -13 -22 3 -13 1 -19 -6 -15 -5 4 -13
1 -16 -5 -3 -7 -2 0 1 16 4 20 3 27 -6 22 -6 -4 -11 -3 -11 3 0 5 8 11 18 13
9 2 12 6 7 10 -6 3 -20 1 -33 -6z"/>
<path d="M5597 5773 c-3 -21 -4 -52 -3 -70 2 -18 -1 -30 -6 -27 -4 3 -8 0 -8
-6 0 -6 -4 -8 -10 -5 -5 3 -10 1 -10 -6 0 -11 11 -10 55 6 17 6 16 3 -5 -15
-14 -12 -19 -19 -12 -15 6 3 19 -1 28 -9 17 -18 182 -72 191 -63 3 4 -6 11
-21 16 -14 6 -26 15 -26 21 0 6 -4 8 -10 5 -6 -4 -7 1 -3 11 5 14 3 16 -11 11
-14 -6 -17 -3 -12 9 7 18 -11 47 -24 39 -4 -2 -7 6 -8 18 0 40 -13 62 -52 90
-21 15 -40 27 -43 27 -2 0 -7 -17 -10 -37z"/>
<path d="M6728 1643 c-28 -4 -28 -5 -28 -79 l0 -74 33 0 c60 0 150 19 168 36
24 21 34 76 20 103 -11 19 -20 21 -89 20 -42 -1 -89 -4 -104 -6z"/>
</g>
</svg>
